<svg xmlns="http://www.w3.org/2000/svg" viewBox="0 13.279999732971191 170.72999572753906 34.720001220703125" data-asc="0.9599609375" width="170.72999572753906" height="34.720001220703125"><defs/><g fill="#15a240"><g transform="translate(0, 0)"><path d="M0 23.05Q0 20.34 1.40 18.13Q2.81 15.92 5.15 14.60Q7.50 13.28 10.35 13.28L26.78 13.28L26.78 18.41L10.35 18.41Q8.20 18.41 6.68 19.76Q5.15 21.12 5.15 23.02L5.15 38.26Q5.15 40.16 6.68 41.52Q8.20 42.87 10.35 42.87L18.48 42.87Q20.65 42.87 22.17 41.52Q23.68 40.16 23.68 38.26L23.68 33.72L14.26 33.72L14.26 28.59L28.83 28.59L28.83 38.23Q28.83 40.92 27.44 43.14Q26.05 45.36 23.69 46.68Q21.34 48.00 18.48 48.00L10.35 48.00Q7.50 48.00 5.15 46.68Q2.81 45.36 1.40 43.14Q0 40.92 0 38.23L0 23.05ZM34.69 27.93Q34.69 25.76 36.28 24.23Q37.87 22.71 40.09 22.71L50.63 22.71Q52.66 22.71 54.31 23.69Q55.96 24.68 56.95 26.35Q57.93 28.03 57.93 30.05L57.93 30.76Q57.93 32.76 56.95 34.41Q55.96 36.06 54.31 37.05Q52.66 38.04 50.63 38.04L42.77 38.04L42.77 32.91L50.68 32.91Q51.56 32.91 52.19 32.28Q52.81 31.64 52.81 30.74L52.81 30.05Q52.81 29.13 52.19 28.49Q51.56 27.86 50.68 27.86L39.84 27.86L39.84 40.84Q39.84 41.67 40.41 42.26Q40.97 42.85 41.77 42.85L56.15 42.85L56.15 48.00L41.77 48.00Q39.82 48.00 38.21 47.03Q36.60 46.07 35.64 44.45Q34.69 42.82 34.69 40.87L34.69 27.93ZM63.31 31.84Q63.31 29.32 64.54 27.25Q65.77 25.17 67.85 23.94Q69.92 22.71 72.44 22.71L77.95 22.71Q80.47 22.71 82.54 23.94Q84.62 25.17 85.85 27.25Q87.08 29.32 87.08 31.84L87.08 38.87Q87.08 41.38 85.85 43.46Q84.62 45.53 82.54 46.77Q80.47 48.00 77.95 48.00L72.44 48.00Q69.92 48.00 67.85 46.77Q65.77 45.53 64.54 43.46Q63.31 41.38 63.31 38.87L63.31 31.84M68.46 38.82Q68.46 40.48 69.63 41.66Q70.80 42.85 72.44 42.85L77.95 42.85Q79.61 42.85 80.77 41.66Q81.93 40.48 81.93 38.82L81.93 31.88Q81.93 30.22 80.77 29.04Q79.61 27.86 77.95 27.86L72.44 27.86Q70.80 27.86 69.63 29.04Q68.46 30.22 68.46 31.88L68.46 38.82ZM92.70 21.68Q92.70 19.36 93.86 17.46Q95.02 15.55 96.98 14.42Q98.95 13.28 101.32 13.28L119.29 13.28L119.29 18.41L101.32 18.41Q99.90 18.41 98.88 19.41Q97.85 20.41 97.85 21.83L97.85 24.22Q97.85 25.51 98.88 26.44Q99.90 27.37 101.32 27.37L112.38 27.37Q114.77 27.37 116.72 28.50Q118.68 29.64 119.84 31.56Q121.00 33.47 121.00 35.79L121.00 39.58Q121.00 41.89 119.84 43.81Q118.68 45.73 116.72 46.86Q114.77 48.00 112.38 48.00L92.72 48.00L92.72 42.85L112.38 42.85Q113.82 42.85 114.83 41.88Q115.84 40.92 115.84 39.55L115.84 35.82Q115.84 34.45 114.83 33.47Q113.82 32.50 112.38 32.50L101.32 32.50Q98.95 32.50 96.98 31.38Q95.02 30.27 93.86 28.39Q92.70 26.51 92.70 24.24L92.70 21.68ZM126.86 27.93Q126.86 25.76 128.44 24.23Q130.03 22.71 132.25 22.71L142.80 22.71Q144.82 22.71 146.47 23.69Q148.12 24.68 149.11 26.35Q150.10 28.03 150.10 30.05L150.10 30.76Q150.10 32.76 149.11 34.41Q148.12 36.06 146.47 37.05Q144.82 38.04 142.80 38.04L134.94 38.04L134.94 32.91L142.85 32.91Q143.73 32.91 144.35 32.28Q144.97 31.64 144.97 30.74L144.97 30.05Q144.97 29.13 144.35 28.49Q143.73 27.86 142.85 27.86L132.01 27.86L132.01 40.84Q132.01 41.67 132.57 42.26Q133.13 42.85 133.94 42.85L148.32 42.85L148.32 48.00L133.94 48.00Q131.98 48.00 130.37 47.03Q128.76 46.07 127.81 44.45Q126.86 42.82 126.86 40.87L126.86 27.93ZM154.49 22.71L157.79 22.71L157.79 13.28L162.94 13.28L162.94 22.71L170.73 22.71L170.73 27.86L162.94 27.86L162.94 40.82Q162.94 41.65 163.59 42.25Q164.23 42.85 165.14 42.85L170.73 42.85L170.73 48.00L165.06 48.00Q163.06 48.00 161.41 47.03Q159.77 46.07 158.78 44.45Q157.79 42.82 157.79 40.84L157.79 27.86L154.49 27.86L154.49 22.71Z"/></g></g></svg>