<svg xmlns="http://www.w3.org/2000/svg" viewBox="-0.00 16.03 46.04 46.04"><defs/><g fill="#1ea53e"><g transform="translate(0, 0)"><path d="M0 39.55L0 38.57Q0 33.59 0.49 30.21Q0.98 26.83 2.17 24.71Q3.37 22.58 5.43 21.46Q7.50 20.34 10.62 19.93Q13.75 19.53 18.14 19.53L27.32 19.53Q33.08 19.53 36.68 19.97Q40.28 20.41 42.22 21.66Q44.17 22.90 44.90 25.28Q45.63 27.66 45.63 31.52L40.94 31.52Q40.94 28.61 40.43 26.99Q39.92 25.37 38.50 24.65Q37.08 23.93 34.39 23.75Q31.69 23.58 27.32 23.58L18.14 23.58Q14.65 23.58 12.26 23.79Q9.86 24.00 8.36 24.74Q6.86 25.49 6.07 27.10Q5.27 28.71 4.98 31.49Q4.69 34.28 4.69 38.57L4.69 39.55Q4.69 43.70 4.98 46.44Q5.27 49.17 6.07 50.81Q6.86 52.44 8.36 53.25Q9.86 54.05 12.26 54.30Q14.65 54.54 18.14 54.54L28.96 54.54Q32.98 54.54 35.45 54.21Q37.92 53.88 39.20 52.80Q40.48 51.71 40.92 49.48Q41.36 47.24 41.36 43.43L41.36 41.99L23.41 41.99L23.41 38.09L46.04 38.09L46.04 43.43Q46.04 48.19 45.24 51.17Q44.43 54.15 42.52 55.77Q40.60 57.40 37.29 58.00Q33.98 58.59 28.96 58.59L18.14 58.59Q12.65 58.59 9.11 57.85Q5.57 57.10 3.58 55.10Q1.59 53.10 0.79 49.34Q0 45.58 0 39.55Z"/></g></g></svg>