<svg xmlns="http://www.w3.org/2000/svg" viewBox="-2.95 13.28 34.72 34.72"><g fill="#15a240"><path d="M0 23.05Q0 20.34 1.40 18.13Q2.81 15.92 5.15 14.60Q7.50 13.28 10.35 13.28L26.78 13.28L26.78 18.41L10.35 18.41Q8.20 18.41 6.68 19.76Q5.15 21.12 5.15 23.02L5.15 38.26Q5.15 40.16 6.68 41.52Q8.20 42.87 10.35 42.87L18.48 42.87Q20.65 42.87 22.17 41.52Q23.68 40.16 23.68 38.26L23.68 33.72L14.26 33.72L14.26 28.59L28.83 28.59L28.83 38.23Q28.83 40.92 27.44 43.14Q26.05 45.36 23.69 46.68Q21.34 48.00 18.48 48.00L10.35 48.00Q7.50 48.00 5.15 46.68Q2.81 45.36 1.40 43.14Q0 40.92 0 38.23L0 23.05Z"/></g></svg>