<svg width="128" height="128" viewBox="0 0 910 910" fill="none" xmlns="http://www.w3.org/2000/svg"><circle cx="455" cy="455" r="455" fill="{{fillColor}}"/><path d="M252.537 735.756C281.85 760.312 316.566 777.573 353.837 786.122C357.404 787.289 359.804 782.622 357.404 780.289C277.571 704.122 321.437 621.689 353.837 584.522C376.937 557.989 409.837 514.289 407.437 455.689C407.437 449.822 413.437 445.122 418.171 448.656C463.471 472.089 494.437 523.656 502.771 565.822C515.904 552.956 520.671 533.022 520.671 515.456C520.671 509.589 527.804 504.889 533.771 509.589C576.671 548.256 650.537 679.489 531.371 782.589C529.004 784.956 531.371 789.656 533.771 788.489C569.905 779.016 603.885 762.699 633.871 740.422C828.104 590.422 701.771 324.422 619.537 236.556C608.837 225.989 589.771 233.022 589.771 248.256C588.571 279.922 579.037 315.056 554.037 338.489C534.971 258.822 471.437 168.322 380.871 123.789C368.971 117.922 354.671 127.289 355.871 140.189C358.204 249.189 287.104 318.589 225.137 408.822C170.304 489.656 134.571 638.489 252.537 735.756Z" fill="white"/></svg>